<svg width="218" height="188" viewBox="0 0 218 188" fill="none" xmlns="http://www.w3.org/2000/svg">

<g id="Desktop">
<g id="about">
<g id="Group 48098500">
<g id="red dino">
<g id="red dino_2">
<path id="Ellipse 9" d="M149.06 124.73C147.26 135.33 139.03 147.09 128.7 145.58C121 144.45 122.04 135.6 123.85 125C125.65 114.4 134.08 103.27 138.56 104.03C143.05 104.8 150.87 114.13 149.06 124.73Z" fill="#8DB0D0"/>
<path id="Ellipse 7" d="M58.62 127.08C57.67 135.63 48.8 151.62 39.62 150.6C32.12 149.77 31.65 140.5 32.6 131.95C33.55 123.4 40.19 109.13 44.78 109.64C49.36 110.15 59.56 118.53 58.62 127.08Z" fill="#8DB0D0"/>
<path id="Vector 43" d="M148.49 76.6C142.38 73.84 139.59 61.95 139.28 59.19C138.97 56.44 146.69 48.73 151.81 45.68C157.04 42.58 160.66 40.85 162.31 41.72C163.96 42.58 165.63 48.56 166.79 54.84C167.75 60.07 168.06 69.43 166.67 71.73C165.27 74.02 154.76 79.43 148.49 76.6Z" fill="#B95959"/>
<path id="Ellipse 6" d="M182.34 64.63C198.98 51.71 186.17 95.15 156.49 121.28C133.4 141.6 100.9 147.19 84.08 146.99C67.26 146.79 31.28 133.33 24.7 104.99C18.12 76.66 38.97 50 57.95 41.83C76.93 33.66 100.54 29.2 121.84 41.37C143.15 53.53 159.16 82.62 182.34 64.63Z" fill="#8DB0D0"/>
<path id="Ellipse 4" d="M110.81 91.54C112.6 99.25 107.8 106.96 100.09 108.75C92.38 110.54 84.68 105.74 82.89 98.03C81.1 90.31 85.9 82.61 93.61 80.82C101.32 79.03 109.02 83.83 110.81 91.54Z" fill="#B95959"/>
<g id="Group 52">
<mask id="mask0_0_1" style="mask-type:alpha" maskUnits="userSpaceOnUse" x="23" y="34" width="167" height="114">
<path id="Ellipse 11" d="M182.44 65.01C199.09 52.16 186.22 95.35 156.5 121.36C133.39 141.59 100.9 147.19 84.09 147.01C67.27 146.83 31.32 133.51 24.79 105.36C18.25 77.21 39.06 50.36 58.04 42.22C77.03 34.07 91.91 33.33 101.58 35.17C111.25 37 127.15 46.53 135.78 52.73C144.4 58.93 148.43 65.57 154.73 68.05C166.2 72.55 178.38 68.15 182.44 65.01Z" fill="#FFDC67"/>
</mask>
<g mask="url(#mask0_0_1)">
<path id="Ellipse 10" d="M39.84 88.45C41.62 96.11 37.25 103.67 30.08 105.34C22.9 107 15.64 102.14 13.86 94.48C12.09 86.82 16.46 79.26 23.63 77.59C30.81 75.93 38.06 80.79 39.84 88.45Z" fill="#B95959"/>
</g>
</g>
<g id="Group 51">
<mask id="mask1_0_1" style="mask-type:alpha" maskUnits="userSpaceOnUse" x="22" y="58" width="173" height="96">
<path id="Vector 40" d="M188.86 61.74C188.86 61.74 179.39 96.11 148.88 116.54C118.38 136.97 70.14 148.63 22.47 113.04L44.71 151.34L105.81 153.58L194.9 111.33L191.91 58.64L188.86 61.74Z" fill="#EDEDED"/>
</mask>
<g mask="url(#mask1_0_1)">
<path id="Ellipse 5" d="M182.35 64.63C198.99 51.71 186.17 95.15 156.49 121.28C133.4 141.6 100.9 147.19 84.08 146.99C67.26 146.79 29.22 128.91 22.64 100.58C16.06 72.24 38.52 48.05 59.5 41.13C80.48 34.2 91.75 32.61 101.42 34.48C111.09 36.34 118.19 37.43 137.53 51.42C156.86 65.41 176.06 69.5 182.35 64.63Z" fill="#BCD3E8"/>
</g>
</g>
<path id="Vector 41" d="M58.43 61.16C52.2 61.56 47.83 59.02 46.71 57.45C45.59 55.88 49.47 51.37 53.05 47.77C56.7 44.09 59.37 41.81 61.09 41.77C62.8 41.73 66.12 44.8 69.07 48.23C71.53 51.08 73.31 53.63 72.79 55.51C72.26 57.38 64.84 60.74 58.43 61.16Z" fill="#B95959"/>
<path id="Vector 42" d="M105.99 53.09C99.45 51.98 95.38 47.66 94.51 45.41C93.63 43.15 98.49 38.52 102.87 34.95C107.33 31.3 110.52 29.13 112.31 29.53C114.1 29.93 116.97 34.63 119.41 39.68C121.43 43.89 122.82 47.55 121.93 49.75C121.04 51.96 112.72 54.23 105.99 53.09Z" fill="#B95959"/>
<path id="Ellipse 6_2" d="M102.16 125.52C108.58 135.06 108.49 153.7 99.43 158.27C90.37 162.83 85.75 156.23 79.32 146.69C72.9 137.14 72.13 121.69 76.81 118.54C81.49 115.39 95.74 115.97 102.16 125.52Z" fill="#8DB0D0"/>
<path id="Ellipse 8" d="M171.04 94.53C177.97 104.87 176.17 134.54 170.01 137.46C161.78 141.37 155.34 133.21 148.41 122.88C141.48 112.54 149.48 94.56 153.77 91.69C158.07 88.81 164.11 84.2 171.04 94.53Z" fill="#8DB0D0"/>
<path id="Ellipse 12" d="M83.22 78.52C82.92 82.15 81.24 84.58 78.73 84.37C76.23 84.16 73.86 81.39 74.16 77.76C74.47 74.13 76.7 71.75 79.2 71.96C81.71 72.17 83.53 74.89 83.22 78.52Z" fill="#452929"/>
<path id="Ellipse 13" d="M50.37 76.62C50.1 80.46 48.73 83.08 46.73 82.95C44.72 82.81 42.83 79.96 43.1 76.12C43.36 72.28 45.17 69.69 47.18 69.83C49.19 69.97 50.63 72.78 50.37 76.62Z" fill="#452929"/>
</g>
</g>
<path id="Vector 1597 (Stroke)" d="M66.72 85.15C66.96 84.65 67.55 84.44 68.05 84.67C68.55 84.91 68.77 85.5 68.53 86C66.39 90.57 63.18 92.83 59.84 92.77C56.53 92.71 53.52 90.39 51.74 86.74C51.5 86.24 51.71 85.65 52.21 85.4C52.7 85.16 53.3 85.37 53.54 85.87C55.1 89.06 57.54 90.73 59.87 90.77C62.16 90.82 64.78 89.29 66.72 85.15Z" fill="#452929" fill-opacity="0.83"/>
</g>
</g>
</g>
<defs>
<linearGradient id="paint0_linear_0_1" x1="720" y1="0" x2="720" y2="821.61" gradientUnits="userSpaceOnUse">
<stop stop-color="#1A2E26"/>
<stop offset="1" stop-color="#CED4DA"/>
</linearGradient>
</defs>
</svg>
